<?xml version="1.0" encoding="iso-8859-1" standalone="no"?> 
<?xml-stylesheet href="latex-URv4sX.css" type="text/css"?> 
<svg xmlns="http://www.w3.org/2000/svg" xmlns:xlink="http://www.w3.org/1999/xlink" width="188.47595pt" height="84.22144pt" viewBox="-30.97191 -7.49962 188.47595 84.22144 "> 
<g transform="translate(0, 76.72182 ) scale(1,-1) translate(0,7.49962 )"> 
         <g stroke="#000" fill="#000">
 <g stroke-width="0.4">
 <path d=" M 0.0 0.0 L 0.2 0.0 M 56.90549 0.0 M 0.0 0.0 L 56.90549 0.0 M 56.90549 0.0 L 113.81097 0.0 M 0.0 0.0 M 113.61098 0.0 L 113.81097 0.0 L 113.81097 0.2 M 113.81097 28.45274 M 113.81097 0.0 L 113.81097 16.50253 M 113.81097 40.40295 L 113.81097 56.90549 M 129.58528 19.34502 L 129.58528 37.56046 M 113.81097 56.70549 L 113.81097 56.90549 L 113.61098 56.90549 M 85.35823 56.90549 M 113.81097 56.90549 L 97.30844 56.90549 M 73.40802 56.90549 L 56.90549 56.90549 M 85.35823 60.19164 M 85.35823 60.19164 M 85.35823 63.42079 M 85.35823 63.42079 M 57.10548 56.90549 L 56.90549 56.90549 L 56.70549 56.90549 M 42.67911 56.90549 M 56.90549 56.90549 L 58.61263 56.90549 M 26.74559 56.90549 L 28.45274 56.90549 M 42.67911 63.47812 M 42.67911 63.47812 M 42.67911 66.70728 M 42.67911 66.70728 M 28.65274 56.90549 L 28.45274 56.90549 L 0.0 56.90549 L 0.0 57.10548 M 0.0 56.90549 M 0.0 56.90549 L 0.0 56.90549 M 0.0 56.90549 L 0.0 56.90549 M 0.0 56.90549 M 0.0 57.10548 L 0.0 56.90549  " fill="none"/>
 <g transform="translate(-27.63893,-2.66667)">
 <g fill="#000">
 <text style="stroke:none" transform="scale(1,-1) translate(12.05298,0)" text-anchor="middle"  font-size="10"> 
<g fill="#000">
 <g stroke="none"> <tspan font-family="cmmi" font-size="10">V</tspan> <tspan baseline-shift="sub"><tspan font-family="cmmi" font-size="7">in</tspan></tspan><tspan font-family="cmsy" font-size="10">-</tspan></g> </g>
 </text> 
</g>
 </g>
 <g stroke="#000" fill="#000">
 <g stroke-width="0.4">
 <g transform="translate(56.90549,0.0)">
 <g fill="#000">
 <text style="stroke:none" transform="scale(1,-1) translate(0.0,0)" text-anchor="middle"  font-size="10"> 
<g fill="#000">
 <g stroke="none"> </g> </g>
 </text> 
</g>
 </g>
 </g>
 </g>
 <g fill="#000">
 <text style="stroke:none" transform="scale(1,-1) translate(0.0,0)" text-anchor="middle"  font-size="10"> 
<g fill="#000">
 <g stroke="none"> </g> </g>
 </text> 
</g>
 <g stroke="#000" fill="#000">
 <g fill="#fff">
 <path d=" M 1.59308 0.0 C 1.59308 0.87984 0.87984 1.59308 0.0 1.59308 C -0.87984 1.59308 -1.59308 0.87984 -1.59308 0.0 C -1.59308 -0.87984 -0.87984 -1.59308 0.0 -1.59308 C 0.87984 -1.59308 1.59308 -0.87984 1.59308 0.0 Z M 0.0 0.0  " />
 <g fill-opacity="1.0">
 <path d="  " />
 </g>
 </g>
 </g>
 <g stroke="#000" fill="#000">
 <g stroke-width="0.79999">
 <path d=" M 101.86076 28.45274 C 101.86076 21.85275 107.21098 16.50253 113.81097 16.50253 C 120.41096 16.50253 125.76118 21.85275 125.76118 28.45274 C 125.76118 35.05273 120.41096 40.40295 113.81097 40.40295 C 107.21098 40.40295 101.86076 35.05273 101.86076 28.45274 Z M 113.81097 28.45274  " fill="none"/>
 <path d=" M 113.81097 16.50253 L 113.81097 40.40295  " fill="none"/>
 <g stroke-width="0.4">
 <g transform="matrix(0.0,1.0,-1.0,0.0,113.81097,28.45274)">
 <g fill="#000">
 <text style="stroke:none" transform="scale(1,-1) translate(0.0,0)" text-anchor="middle"  font-size="10"> 
<g fill="#000">
 <g stroke="none"> </g> </g>
 </text> 
</g>
 </g>
 </g>
 </g>
 </g>
 <g transform="matrix(0.0,1.0,-1.0,0.0,129.58528,35.07086)">
 <g fill="#000">
 <text style="stroke:none" transform="scale(1,-1) translate(0.0,0)" text-anchor="middle"  font-size="10"> 
<g fill="#000">
 <g stroke="none"> </g> </g>
 </text> 
</g>
 </g>
 <g stroke="#000" fill="#000">
 <path d=" M 129.58528 33.32816 L 131.57695 33.32816 L 129.58528 37.56046 L 127.59361 33.32816 L 129.58528 33.32816  " />
 </g>
 <g transform="translate(131.78526,25.95273)">
 <g fill="#000">
 <text style="stroke:none" transform="scale(1,-1) translate(11.85939,0)" text-anchor="middle"  font-size="10"> 
<g fill="#000">
 <g stroke="none"> <tspan font-family="cmmi" font-size="10">V</tspan> <tspan baseline-shift="sub"><tspan font-family="cmmi" font-size="7">s</tspan> </tspan> (<tspan font-family="cmmi" font-size="10">t</tspan>) </g> </g>
 </text> 
</g>
 </g>
 <g stroke="#000" fill="#000">
 <g stroke-width="0.79999">
 <g stroke-linecap="butt">
 <g stroke-linejoin="bevel">
 <path d=" M 97.70844 57.06548 C 97.70844 53.76549 96.06758 51.09038 94.04344 51.09038 C 92.0193 51.09038 90.37845 53.76549 90.37845 57.06548 C 90.37845 58.71538 91.0472 60.05287 91.87215 60.05287 C 92.6971 60.05287 93.36584 58.71538 93.36584 57.06548 C 93.36584 53.76549 91.72499 51.09038 89.70085 51.09038 C 87.67671 51.09038 86.03586 53.76549 86.03586 57.06548 C 86.03586 58.71538 86.7046 60.05287 87.52956 60.05287 C 88.3545 60.05287 89.02325 58.71538 89.02325 57.06548 C 89.02325 53.76549 87.3824 51.09038 85.35826 51.09038 C 83.33412 51.09038 81.69327 53.76549 81.69327 57.06548 C 81.69327 58.71538 82.36201 60.05287 83.18697 60.05287 C 84.01192 60.05287 84.68066 58.71538 84.68066 57.06548 C 84.68066 53.76549 83.03981 51.09038 81.01567 51.09038 C 78.99153 51.09038 77.35068 53.76549 77.35068 57.06548 C 77.35068 58.71538 78.01942 60.05287 78.84438 60.05287 C 79.66933 60.05287 80.33807 58.71538 80.33807 57.06548 C 80.33807 53.76549 78.69722 51.09038 76.67308 51.09038 C 74.64894 51.09038 73.00809 53.76549 73.00809 57.06548  " fill="none"/>
 <g stroke-width="0.4">
 <g transform="matrix(-1.0,0.0,0.0,-1.0,85.35823,56.90549)">
 <g fill="#000">
 <text style="stroke:none" transform="scale(1,-1) translate(0.0,0)" text-anchor="middle"  font-size="10"> 
<g fill="#000">
 <g stroke="none"> </g> </g>
 </text> 
</g>
 </g>
 </g>
 </g>
 </g>
 </g>
 </g>
 <g transform="translate(78.1574,63.42079)">
 <g fill="#000">
 <text style="stroke:none" transform="scale(1,-1) translate(7.20084,0)" text-anchor="middle"  font-size="10"> 
<g fill="#000">
 <g stroke="none"> <tspan font-family="cmmi" font-size="10">L</tspan><tspan baseline-shift="sub"><tspan font-family="cmmi" font-size="7">m</tspan> </tspan> </g> </g>
 </text> 
</g>
 </g>
 <g stroke="#000" fill="#000">
 <g stroke-width="0.79999">
 <g stroke-linejoin="bevel">
 <path d=" M 59.01262 56.90549 L 55.9237 50.93039 L 50.54587 62.88058 L 45.16803 50.93039 L 39.79019 62.88058 L 34.41235 50.93039 L 29.03452 62.88058 L 26.3456 56.90549  " fill="none"/>
 <g stroke-width="0.4">
 <g transform="matrix(-1.0,0.0,0.0,-1.0,42.67911,56.90549)">
 <g fill="#000">
 <text style="stroke:none" transform="scale(1,-1) translate(0.0,0)" text-anchor="middle"  font-size="10"> 
<g fill="#000">
 <g stroke="none"> </g> </g>
 </text> 
</g>
 </g>
 </g>
 </g>
 </g>
 </g>
 <g transform="translate(32.81798,66.70728)">
 <g fill="#000">
 <text style="stroke:none" transform="scale(1,-1) translate(9.86113,0)" text-anchor="middle"  font-size="10"> 
<g fill="#000">
 <g stroke="none"> 3¡&#x03A9;¿ </g> </g>
 </text> 
</g>
 </g>
 <g stroke="#000" fill="#000">
 <g stroke-width="0.4">
 <g transform="matrix(0.0,1.0,-1.0,0.0,0.0,56.90549)">
 <g fill="#000">
 <text style="stroke:none" transform="scale(1,-1) translate(0.0,0)" text-anchor="middle"  font-size="10"> 
<g fill="#000">
 <g stroke="none"> </g> </g>
 </text> 
</g>
 </g>
 </g>
 </g>
 <g transform="translate(0.0,56.90549)">
 <g fill="#000">
 <text style="stroke:none" transform="scale(1,-1) translate(0.0,0)" text-anchor="middle"  font-size="10"> 
<g fill="#000">
 <g stroke="none"> </g> </g>
 </text> 
</g>
 </g>
 <g stroke="#000" fill="#000">
 <g fill="#fff">
 <path d=" M 1.59308 56.90549 C 1.59308 57.78532 0.87984 58.49857 0.0 58.49857 C -0.87984 58.49857 -1.59308 57.78532 -1.59308 56.90549 C -1.59308 56.02565 -0.87984 55.31241 0.0 55.31241 C 0.87984 55.31241 1.59308 56.02565 1.59308 56.90549 Z M 0.0 56.90549  " />
 <g fill-opacity="1.0">
 <path d="  " />
 </g>
 </g>
 </g>
 <g transform="translate(-27.63893,54.23882)">
 <g fill="#000">
 <text style="stroke:none" transform="scale(1,-1) translate(12.05298,0)" text-anchor="middle"  font-size="10"> 
<g fill="#000">
 <g stroke="none"> <tspan font-family="cmmi" font-size="10">V</tspan> <tspan baseline-shift="sub"><tspan font-family="cmmi" font-size="7">in</tspan> </tspan> +</g> </g>
 </text> 
</g>
 </g>
 </g>
 </g>
 
                                                         </g> 
</svg> 
